<?xml version="1.0" standalone="no"?>
<!DOCTYPE svg PUBLIC "-//W3C//DTD SVG 20010904//EN"
 "http://www.w3.org/TR/2001/REC-SVG-20010904/DTD/svg10.dtd">
<svg version="1.0" xmlns="http://www.w3.org/2000/svg"
 width="512.000000pt" height="512.000000pt" viewBox="0 0 512.000000 512.000000"
 preserveAspectRatio="xMidYMid meet">
<metadata>
Created by potrace 1.16, written by Peter Selinger 2001-2019
</metadata>
<g transform="translate(0.000000,512.000000) scale(0.100000,-0.100000)"
fill="#FFFFFF" stroke="none">
<path d="M1993 4807 c-73 -56 -166 -127 -207 -157 l-75 -55 -1 -500 0 -501
320 -514 320 -515 0 -1112 0 -1112 69 -44 c37 -25 86 -55 107 -67 l39 -23 112
69 112 69 1 1131 0 1131 315 496 315 495 -1 498 0 499 -196 150 c-108 83 -200
152 -204 153 -5 2 -9 -228 -9 -520 l0 -523 -101 -175 c-224 -388 -321 -550
-327 -550 -4 1 -106 160 -227 354 l-220 354 -5 535 -5 536 -132 -102z"/>
<path d="M1188 4192 l-218 -166 0 -598 0 -598 -235 0 -235 0 0 416 c0 229 -4
414 -8 412 -5 -1 -106 -77 -225 -167 l-217 -165 0 -771 0 -771 219 -137 c120
-75 222 -137 225 -137 3 0 6 191 6 425 l0 425 233 -2 232 -3 3 -575 3 -575
217 -136 217 -136 3 859 c1 473 1 1244 0 1713 l-3 854 -217 -167z"/>
<path d="M3720 2651 c0 -941 3 -1711 6 -1711 3 0 104 62 225 137 l219 138 0
562 0 563 223 0 224 0 7 -412 c4 -227 8 -414 10 -416 3 -2 100 57 218 131
l213 135 3 770 2 771 -107 84 c-60 46 -335 258 -613 472 -278 214 -533 410
-567 437 l-63 50 0 -1711z m683 619 l216 -165 0 -132 1 -133 -225 0 -225 0 0
301 c0 175 4 299 9 297 5 -1 106 -77 224 -168z"/>
</g>
</svg>
